<?xml version="1.0" encoding="UTF-8" standalone="no"?>
<svg
   xmlns:dc="http://purl.org/dc/elements/1.1/"
   xmlns:cc="http://creativecommons.org/ns#"
   xmlns:rdf="http://www.w3.org/1999/02/22-rdf-syntax-ns#"
   xmlns:svg="http://www.w3.org/2000/svg"
   xmlns="http://www.w3.org/2000/svg"
   xmlns:sodipodi="http://sodipodi.sourceforge.net/DTD/sodipodi-0.dtd"
   xmlns:inkscape="http://www.inkscape.org/namespaces/inkscape"
   width="210mm"
   height="297mm"
   viewBox="0 0 210 297"
   version="1.1"
   id="svg8"
   inkscape:version="1.0.2-2 (e86c870879, 2021-01-15)"
   sodipodi:docname="drawing.svg">
  <defs
     id="defs2" />
  <sodipodi:namedview
     id="base"
     pagecolor="#ffffff"
     bordercolor="#666666"
     borderopacity="1.0"
     inkscape:pageopacity="0.0"
     inkscape:pageshadow="2"
     inkscape:zoom="0.35"
     inkscape:cx="400"
     inkscape:cy="560"
     inkscape:document-units="mm"
     inkscape:current-layer="layer1"
     inkscape:document-rotation="0"
     showgrid="false"
     inkscape:window-width="1920"
     inkscape:window-height="1017"
     inkscape:window-x="-8"
     inkscape:window-y="-8"
     inkscape:window-maximized="1" />
  <metadata
     id="metadata5">
    <rdf:RDF>
      <cc:Work
         rdf:about="">
        <dc:format>image/svg+xml</dc:format>
        <dc:type
           rdf:resource="http://purl.org/dc/dcmitype/StillImage" />
        <dc:title></dc:title>
      </cc:Work>
    </rdf:RDF>
  </metadata>
  <g
     inkscape:label="Layer 1"
     inkscape:groupmode="layer"
     id="layer1">
    <path
       style="fill:#ff00b3;stroke-width:0.264583;fill-opacity:1"
       d="m 104.76621,251.73647 c -11.062725,-0.46106 -20.574578,-1.67181 -27.860989,-3.54637 -7.620736,-1.96058 -11.429839,-4.3494 -12.809,-8.03298 -0.498187,-1.33059 -0.669851,-2.56361 -1.306478,-9.38395 -0.146516,-1.56966 -0.513446,-4.06997 -0.815401,-5.55625 -1.289577,-6.34755 -3.24929,-8.27854 -9.90812,-9.76285 -3.168491,-0.70628 -6.891697,-0.54496 -13.356598,0.57873 -4.319965,0.75086 -5.306827,0.83641 -8.466666,0.73392 -3.03924,-0.0986 -3.908822,-0.22873 -5.786597,-0.86609 -4.116691,-1.3973 -6.78492,-3.63459 -8.5205,-7.14438 -2.34698,-4.74618 -2.73194,-8.34663 -2.48942,-23.28333 0.22842,-14.06784 -0.0649,-17.10065 -2.06025,-21.29896 -1.07418,-2.26019 -3.3408296,-4.53003 -5.5422496,-5.55007 -0.91702,-0.4249 -2.88718,-1.01415 -4.37814,-1.30945 -3.20962,-0.63567 -4.38688,-1.18505 -5.733439,-2.67554 -3.83566,-4.24561 -2.85642,-9.35542 3.62266898,-18.90343 C 7.0119514,124.45171 14.884111,112.4402 15.663961,110.85094 c 1.1257,-2.29405 1.14406,-3.37796 0.0985,-5.81859 -1.71871,-4.01206 -2.33329,-8.387159 -2.11469,-15.054209 0.16035,-4.89039 0.75504,-8.40313 2.30447,-13.6121 3.130759,-10.52527 9.807046,-22.24167 17.508069,-30.72541 3.500652,-3.85645 10.748597,-10.8869 13.446519,-13.04302 16.073877,-12.84587 36.370033,-18.0517 68.527081,-17.57674 5.96747,0.0881 10.03062,0.27632 12.43542,0.57594 18.7323,2.33394 34.59933,8.59264 47.41751,18.70368 3.945,3.11184 10.22923,9.54663 13.20321,13.51956 10.77585,14.39541 16.20401,32.13132 16.17616,52.853909 -0.0179,13.30392 -2.38462,23.71021 -7.98676,35.11675 -3.39062,6.90366 -6.51915,11.75182 -14.81573,22.9593 -11.94724,16.13901 -15.8427,24.09253 -16.97589,34.66041 -0.5963,5.56098 0.13244,18.82045 1.35963,24.73854 0.71969,3.47067 1.38156,5.37805 3.30527,9.525 2.06966,4.46161 2.43702,5.70852 2.82657,9.59416 0.26699,2.66315 0.25654,3.16217 -0.0724,3.46069 -0.65942,0.59835 -19.19083,6.27438 -23.52057,7.20416 -4.90357,1.05301 -15.75069,2.88132 -19.46176,3.28033 -6.55064,0.70431 -15.591,0.8969 -24.55834,0.52317 z m 43.12311,-93.35499 c 2.96629,-1.02109 6.17454,-3.21876 8.80814,-6.03361 2.46259,-2.63208 3.6632,-4.81809 4.54879,-8.28224 0.7612,-2.97759 0.82334,-3.03443 2.58543,-2.36489 3.02954,1.15114 6.18889,0.88795 8.98065,-0.74813 1.73122,-1.01456 5.74145,-4.94785 6.3714,-6.24915 0.35323,-0.72967 0.63923,-2.09008 0.80486,-3.82846 0.48391,-5.07871 1.17725,-6.84471 4.37328,-11.13916 2.62294,-3.52439 3.35879,-4.74689 4.30714,-7.15563 1.71801,-4.36361 2.54246,-10.2325 2.14972,-15.302769 -0.38274,-4.94102 -1.73197,-8.45323 -4.19273,-10.91409 -2.06858,-2.06867 -3.79062,-2.71493 -7.29519,-2.73776 -3.65689,-0.0238 -4.78241,0.52534 -8.58104,4.187 -3.22947,3.11302 -4.16361,3.59411 -6.01223,3.09633 -3.87319,-1.04295 -3.50125,-5.70405 0.7763,-9.72844 3.49252,-3.28582 8.68109,-5.27681 15.07661,-5.78529 2.79527,-0.22224 2.70232,-0.0487 2.52177,-4.7096 -0.14181,-3.66077 -0.63284,-5.17878 -2.11387,-6.53494 -0.99189,-0.90825 -3.68263,-1.83922 -5.33344,-1.84532 -0.60313,-0.002 -1.22325,-0.0915 -1.37804,-0.19844 -0.15479,-0.10691 -0.41619,-1.51201 -0.58088,-3.12244 -0.47465,-4.64135 -1.63921,-7.06195 -3.88924,-8.08399 -1.37513,-0.62464 -2.34936,-0.61951 -4.41451,0.0232 -0.91992,0.28631 -1.7622,0.43096 -1.87173,0.32143 -0.10952,-0.10952 -0.312,-0.79427 -0.44994,-1.52165 -0.86996,-4.58731 -3.71116,-8.31394 -7.29768,-9.57195 -1.85738,-0.65149 -5.31894,-0.57342 -7.38361,0.16653 -0.85952,0.30804 -1.7202,0.56007 -1.91261,0.56007 -0.1924,0 -0.8988,-0.83328 -1.56975,-1.85174 -1.4993,-2.27578 -2.84128,-3.45192 -5.36115,-4.6986 -2.48444,-1.22915 -4.15145,-1.3743 -7.1003,-0.61824 -1.18841,0.30471 -2.5234,0.55401 -2.96663,0.55401 -1.41572,0 -3.54726,-1.00154 -5.58056,-2.6221 -2.58317,-2.05882 -3.40907,-2.2806 -8.34206,-2.24013 -5.07767,0.0417 -6.50148,0.33501 -8.205,1.69045 -0.726,0.57766 -2.01435,1.58468 -2.863,2.23783 l -1.54299,1.18755 -0.97055,-0.43541 c -4.138257,-1.8565 -8.247818,-2.58348 -11.120966,-1.9673 -3.3001,0.70774 -6.412796,3.04395 -8.78464,6.59324 -0.749112,1.12099 -1.480045,2.11193 -1.624298,2.20209 -0.144254,0.0902 -1.248106,-0.0557 -2.453005,-0.32421 -5.57724,-1.24273 -9.41586,-1.15158 -12.448157,0.29561 -1.840566,0.87842 -4.112762,2.80289 -5.254439,4.45034 l -0.726517,1.04836 0.781743,2.21007 c 1.358077,3.83942 1.586013,4.19444 2.693011,4.19444 1.226177,0 3.311319,-0.61876 5.081768,-1.50801 1.633209,-0.82031 4.74273,-1.14176 6.001419,-0.62039 2.16961,0.89868 1.474502,4.15995 -1.474615,6.9185 -4.131406,3.86445 -9.332916,4.45394 -13.831049,1.5675 -1.694844,-1.08758 -4.235178,-3.81046 -5.368745,-5.75454 -0.922224,-1.58161 -2.137683,-2.48962 -3.797959,-2.83725 -1.601018,-0.33522 -4.703752,2.80695 -5.146109,5.21152 -0.122261,0.6646 -0.06265,2.36666 0.145899,4.16589 0.398651,3.4393 0.316505,3.70261 -1.157007,3.70861 -1.446257,0.006 -4.10669,0.70073 -5.661215,1.47857 -3.538474,1.77055 -5.90409,4.52484 -7.24847,8.43939 -0.650816,1.89505 -0.727472,2.49066 -0.732131,5.68855 -0.0059,4.06616 0.365051,5.8312 1.872102,8.9071 2.531472,5.16675 6.459299,7.37545 11.911266,6.69797 3.944639,-0.49018 5.495476,-1.46251 7.165504,-4.49257 1.506924,-2.73413 2.5423,-3.85392 4.373925,-4.73051 2.979068,-1.42575 3.127486,-1.37728 4.583846,1.49691 1.548926,3.05687 0.841533,5.24012 -2.943276,9.08395 -1.304115,1.32445 -2.758029,2.4134 -4.953412,3.71001 -3.26585,1.928839 -5.226889,3.544049 -5.226889,4.305129 0,0.69331 2.568967,3.27741 4.523676,4.55034 4.338403,2.82521 10.091151,4.16272 19.596775,4.55626 l 4.322257,0.17895 -0.0805,0.66145 c -0.04427,0.36381 -0.09944,2.09021 -0.122597,3.83646 -0.03508,2.64553 0.05962,3.50592 0.567827,5.15938 0.961491,3.12819 2.320478,5.45479 4.40204,7.53636 3.339775,3.33977 7.445028,4.95684 12.525359,4.93375 5.750491,-0.0261 9.388779,-1.74159 15.251619,-7.19122 4.36708,-4.05929 6.91638,-5.82098 8.39173,-5.7991 0.33226,0.005 1.3584,0.61123 2.28031,1.34734 1.95684,1.56246 1.95366,1.51204 0.3086,4.88701 -1.37565,2.82224 -3.64409,4.979 -9.02493,8.5806 -6.18872,4.14235 -9.675249,5.57341 -14.573959,5.98195 -1.354061,0.11292 -2.160916,0.29997 -2.245572,0.52058 -0.07267,0.18938 0.205864,0.97282 0.618972,1.74097 0.610684,1.13554 1.072612,1.58369 2.470893,2.3972 2.872057,1.67093 4.365826,2.12882 6.349996,1.94649 0.94589,-0.0869 2.25558,-0.25092 2.91042,-0.36446 1.68724,-0.29252 3.58176,0.0602 6.70709,1.24865 1.49268,0.56762 3.4815,1.2343 4.41959,1.48151 2.34841,0.61886 6.08409,0.57128 9.35453,-0.11914 1.44201,-0.30442 2.87076,-0.55252 3.175,-0.55133 0.35479,0.001 0.98773,0.54697 1.76496,1.52136 4.25136,5.32981 10.97737,7.3141 17.35297,5.11941 z m -8.77518,-7.29889 c -7.96111,-1.75171 -13.21376,-7.09905 -13.80223,-14.05105 -0.15369,-1.81564 -0.13325,-1.9032 0.64851,-2.77813 0.80514,-0.90112 0.81321,-0.9034 3.18236,-0.9034 2.85065,0 3.20479,0.22809 3.99722,2.5746 1.04985,3.10879 3.28603,5.73919 5.92266,6.96678 2.22045,1.03382 4.24114,0.90505 8.56081,-0.54555 5.60265,-1.88144 6.80858,-1.6013 8.45638,1.96442 0.40714,0.88102 0.60389,1.67179 0.50952,2.04781 -0.18147,0.72304 -2.3551,2.50491 -4.18963,3.43454 -3.1452,1.5938 -9.22288,2.18391 -13.2856,1.28998 z m 0.85332,-36.79999 c -5.59788,-1.35627 -9.41704,-5.7622 -10.52881,-12.14644 -0.16923,-0.9718 -0.44273,-1.79968 -0.60777,-1.83974 -0.16504,-0.0401 -1.13351,-0.26941 -2.15216,-0.509679 -7.08186,-1.67039 -13.55189,-7.98659 -15.35281,-14.98777 -0.58989,-2.29325 -0.6186,-5.69472 -0.0571,-6.76615 0.69525,-1.32667 1.00607,-1.46939 2.55867,-1.17495 3.19934,0.60674 4.13347,1.54758 5.31612,5.3543 1.07492,3.45992 1.60241,4.47696 3.19586,6.16179 1.86227,1.96908 3.33248,2.65831 7.87917,3.69376 2.18401,0.49739 4.33442,1.0923 4.77867,1.32203 1.14502,0.59211 1.61246,1.91935 1.89997,5.39471 0.13674,1.652909 0.41319,3.323529 0.61433,3.712499 0.88366,1.7088 3.92766,3.92256 6.57021,4.77821 1.55466,0.50338 2.51393,1.47113 2.96549,2.99167 0.60171,2.02621 0.52236,2.89207 -0.34086,3.71908 -0.6905,0.66154 -0.89739,0.70943 -2.97656,0.68892 -1.22897,-0.0121 -2.92205,-0.18863 -3.76241,-0.39224 z M 90.109146,102.23677 c -1.065321,-0.68234 -1.744707,-1.778 -2.363538,-3.811759 -0.674204,-2.21574 -0.674934,-8.77039 -0.0013,-11.24479 1.41206,-5.18644 4.61999,-11.05451 6.604145,-12.08055 0.626676,-0.32407 1.286423,-0.38979 2.81599,-0.28049 2.172531,0.15525 2.818968,0.32885 3.001197,0.80597 0.19138,0.5011 -0.300854,3.64873 -0.772612,4.94048 -0.239154,0.65485 -1.031332,2.18828 -1.760394,3.40763 -1.839945,3.07729 -2.347154,4.53623 -2.494661,7.17571 -0.09443,1.68964 0.01196,2.85692 0.42782,4.69355 0.60162,2.65708 0.710306,4.837839 0.281083,5.639849 -0.720511,1.34628 -4.116536,1.79279 -5.737775,0.7544 z M 89.306615,68.639641 c -0.763826,-0.13222 -1.835388,-0.4519 -2.38125,-0.71039 l -0.992476,-0.46998 0.0068,-1.84734 c 0.0095,-2.57234 0.23893,-3.24582 1.256903,-3.68942 0.469122,-0.20442 2.435101,-0.86094 4.368843,-1.45892 6.050184,-1.87094 9.083585,-3.55031 10.134815,-5.61088 0.61415,-1.20385 0.60884,-0.56501 0.0812,-9.76334 -0.15082,-2.62921 -0.11222,-3.16184 0.27153,-3.74752 0.97353,-1.4858 3.73769,-1.99545 5.38275,-0.99246 2.24529,1.36896 3.37266,4.96952 3.1752,10.14093 -0.10065,2.636 -0.24718,3.54149 -0.8078,4.99189 -1.83169,4.73874 -6.5181,9.55877 -11.387639,11.71231 -2.943918,1.30194 -6.592356,1.88076 -9.108906,1.44512 z m 68.243645,-0.44328 c -0.29712,-0.25466 -1.17351,-1.26429 -1.94754,-2.24362 -1.66793,-2.11033 -3.61963,-3.64247 -5.70933,-4.48198 -2.26341,-0.9093 -6.80622,-0.8531 -11.9641,0.14802 -3.69912,0.71798 -7.78744,0.98166 -8.48984,0.54756 -0.44894,-0.27746 -0.0903,-4.22433 0.49127,-5.40584 0.56028,-1.13833 1.62828,-1.77107 3.65288,-2.16418 0.85899,-0.16678 1.69286,-0.40441 1.85306,-0.52807 0.47023,-0.36297 -0.0175,-2.59827 -1.09834,-5.03391 -1.19632,-2.69584 -1.52228,-5.34134 -0.7949,-6.45147 1.35182,-2.06313 5.25446,-1.79265 7.19532,0.49869 1.07487,1.26897 2.17433,3.90677 2.52522,6.05845 0.17262,1.05852 0.4147,2.06046 0.53794,2.22655 0.12325,0.16608 0.78579,0.37964 1.47233,0.47458 2.32437,0.32143 6.72251,1.5113 8.75293,2.36799 4.34492,1.83326 8.51641,5.60297 9.83462,8.88741 0.47875,1.19286 0.43544,3.31569 -0.0933,4.57065 l -0.418,0.99219 h -2.63002 c -2.1226,0 -2.73425,-0.0893 -3.17024,-0.46302 z"
       id="path853" />
    <path
       style="fill:#000000;stroke-width:0.264583"
       id="path849"
       d="" />
    <path
       style="fill:#000000;stroke-width:0.264583"
       id="path847"
       d="" />
  </g>
</svg>
