<?xml version="1.0" encoding="UTF-8" standalone="no"?>
<svg
   xmlns:dc="http://purl.org/dc/elements/1.1/"
   xmlns:cc="http://creativecommons.org/ns#"
   xmlns:rdf="http://www.w3.org/1999/02/22-rdf-syntax-ns#"
   xmlns:svg="http://www.w3.org/2000/svg"
   xmlns="http://www.w3.org/2000/svg"
   xmlns:sodipodi="http://sodipodi.sourceforge.net/DTD/sodipodi-0.dtd"
   xmlns:inkscape="http://www.inkscape.org/namespaces/inkscape"
   width="210mm"
   height="297mm"
   viewBox="0 0 210 297"
   version="1.1"
   id="svg8"
   inkscape:version="1.0.2-2 (e86c870879, 2021-01-15)"
   sodipodi:docname="wreanch.svg">
  <defs
     id="defs2" />
  <sodipodi:namedview
     id="base"
     pagecolor="#ffffff"
     bordercolor="#666666"
     borderopacity="1.0"
     inkscape:pageopacity="0.0"
     inkscape:pageshadow="2"
     inkscape:zoom="0.35"
     inkscape:cx="400"
     inkscape:cy="560"
     inkscape:document-units="mm"
     inkscape:current-layer="layer1"
     inkscape:document-rotation="0"
     showgrid="false"
     inkscape:window-width="1920"
     inkscape:window-height="1017"
     inkscape:window-x="-8"
     inkscape:window-y="-8"
     inkscape:window-maximized="1" />
  <metadata
     id="metadata5">
    <rdf:RDF>
      <cc:Work
         rdf:about="">
        <dc:format>image/svg+xml</dc:format>
        <dc:type
           rdf:resource="http://purl.org/dc/dcmitype/StillImage" />
        <dc:title></dc:title>
      </cc:Work>
    </rdf:RDF>
  </metadata>
  <g
     inkscape:label="Layer 1"
     inkscape:groupmode="layer"
     id="layer1">
    <path
       style="fill:#000000;stroke-width:0.264583"
       id="path849"
       d="" />
    <path
       style="fill:#000000;stroke-width:0.264583"
       id="path847"
       d="" />
    <path
       style="fill:#5b5552;stroke-width:0.264583;fill-opacity:1"
       d="m -236.85879,204.31108 c -11.7993,-1.00067 -21.50357,-9.98548 -23.57483,-21.82704 -0.72983,-4.17251 -0.10543,-10.11206 1.41425,-13.45309 0.50754,-1.11583 11.42526,-12.08415 18.45642,-18.54196 8.17412,-7.50757 13.38752,-12.2327 19.84375,-17.98523 6.29644,-5.61016 8.81218,-7.82289 22.88645,-20.1299 25.23695,-22.068002 36.3991,-33.173132 39.18997,-38.989782 0.41894,-0.87313 0.7618,-1.9573 0.76191,-2.40929 1.1e-4,-0.45198 -0.41487,-4.24433 -0.9222,-8.42744 -1.64946,-13.60059 -2.05875,-18.95146 -1.91337,-25.01431 0.14335,-5.97827 0.47451,-7.80374 2.18565,-12.04824 2.65832,-6.59395 5.95318,-11.45972 11.88373,-17.5496004 6.1404,-6.305381 10.87937,-9.341757 18.60366,-11.919838 6.0904,-2.032749 12.29566,-3.014319 18.97837,-3.002068 6.58114,0.01206 11.952021,1.151837 15.175751,3.220497 2.3884,1.532632 2.63766,3.17756202 0.91542,6.041076 -2.3775,3.952983 -5.39802,7.258683 -20.504231,22.4401634 -6.81339,6.84733 -12.38799,12.51308 -12.38799,12.59054 0,0.27814 32.084641,32.24205 32.363831,32.24205 0.15707,0 6.00658,-5.69305 12.9989,-12.65123 14.6587,-14.58712 18.02553,-17.56387 22.32509,-19.73851 2.84084,-1.43684 5.26102,-1.1024 6.52625,0.90185 1.70767,2.70512 2.36824,7.33869 2.3767,16.67122 0.007,7.22814 -0.13915,8.59288 -1.45472,13.62605 -7.14023,27.31742 -38.57674,43.526112 -66.890981,34.489042 -1.40609,-0.44878 -5.25917,-1.93327 -8.5624,-3.298862 -3.30324,-1.36559 -6.11529,-2.48289 -6.24901,-2.48289 -0.13372,0 -1.12757,1.04179 -2.20856,2.3151 -8.82374,10.393602 -41.38837,48.979512 -47.95269,56.819272 -31.48395,37.60126 -39.5244,45.63208 -47.65053,47.59344 -1.71143,0.41308 -4.90693,0.6638 -6.61459,0.51898 z m 8.16168,-21.36025 c 2.91656,-1.43144 4.51844,-3.7395 4.51926,-6.51154 0.002,-5.11677 -5.57504,-9.5249 -10.35614,-8.18628 -1.79452,0.50244 -4.05074,2.7668 -4.80542,4.82276 -1.66465,4.535 0.15703,8.81778 4.43385,10.42401 1.45732,0.54732 4.528,0.27581 6.20845,-0.54895 z"
       id="path869" />
  </g>
</svg>
